<svg version="1" xmlns="http://www.w3.org/2000/svg" width="533.333" height="533.333" viewBox="0 0 400.000000 400.000000"><path d="M18 122v64h25v-53.7h26V186h25V58H69v51H43V58H18v64zM129 58.5c0 .3-1.1 5.7-2.5 12-1.3 6.2-2.6 12.4-2.9 13.7-.2 1.3-1.1 5.4-2 9.3-2.4 9.8-2.7 11.6-3.3 15-.2 1.6-.6 3.6-.9 4.4-.5 1.5-9.4 42.1-10.9 50.1-.3 1.4-1.5 7.1-2.8 12.7l-2.4 10.3H125.6l2.4-11.8c1.4-6.4 2.5-12 2.6-12.5.1-.4.2-1.6.3-2.7.1-1.9.8-2 12.1-2 6.6 0 11.9.3 11.8.7-.2.7.4 4 1.8 11.8.2 1.1 1 5.1 1.7 9l1.3 7 12.2.3c6.7.1 12.2.1 12.2 0 0-.2-.9-5-2.1-10.8-1.1-5.8-2.2-11.6-2.5-13-.2-1.4-.7-3.6-1-5-.3-1.4-.8-3.6-1-5-.5-2.3-6.1-31.5-8.5-43.6-.5-2.8-1.2-6.4-1.5-8-1.3-7.1-7.6-39.1-8-40.7-.5-1.5-2.1-1.7-15.5-1.7-8.2 0-14.9.2-14.9.5zm15.4 29c.4 2.8.8 6.1 1.1 7.5.3 1.4.7 4.3 1 6.5.5 4.5.9 7.4 3.4 21.8 2.5 15.3 3 14.1-6.7 14.2-4.6.1-8.5-.2-8.8-.6-.2-.4.1-3.1.7-6 .9-4.7 4.2-24.3 5.4-31.9 1.7-11.2 2.8-17.1 3-16.8.2.2.6 2.6.9 5.3zM193 122v64h25V58h-25v64zM235 122v64h22.2l-.6-36.8c-.3-20.2-.8-39.6-1-43.2l-.4-6.5 4.8 14.3c4 11.7 15.3 41.1 21.7 56.2.8 1.9 1.9 4.4 2.3 5.5.4 1.1 1.6 3.9 2.5 6.2l1.8 4.3H311V58h-22l.4 29.2c.4 26.7 1 42 2.1 53.5.5 5.3 0 5.4-1.5.5-2-6-11.5-30.8-22.3-58l-10-25.2H235v64zM328 122v64h58v-21.8h-15.2c-8.4 0-15.9 0-16.5-.1-1-.1-1.3-4.2-1.3-17.1 0-16.9 0-17 2.3-17.1 1.2 0 7.7-.1 14.5-.1 8.4 0 12.2-.4 12.3-1.2 0-.6.1-5.3.2-10.4l.2-9.2h-29.6l.3-14.7.3-14.7H383.8l-.1-10.8-.1-10.8H328v64zM65 235.2c-8.1 2.2-15.8 10.1-17.9 18.5-1.6 6.3-1.3 11.7 1 18.1 1.1 3.1 2.3 6.4 2.5 7.2.3 1-1.1 2.3-4.1 3.9-11.6 6.1-19.6 17.9-19.7 29.1-.2 16.4 12 26.2 30.6 24.7 8.5-.7 14.2-2.7 20.6-7.2l4.6-3.2 3.2 4.8L89 336h15l-6-7.9c-3.3-4.3-6-8.1-6-8.4 0-.3 2.2-3.5 4.9-7.1 4.9-6.4 10.1-16.2 14-26.4l2.1-5.2h-11.7l-3.7 8.9c-2.1 5-5.5 11.8-7.7 15.1l-4 6.2-3-4.2c-1.7-2.3-5.9-8.6-9.4-14l-6.3-9.8 5.5-2.8c7.9-4.2 14.7-10.2 17.8-15.8 2.2-3.9 2.8-6.1 2.7-11.3 0-7.6-2.7-12.6-8.7-16.3-4.1-2.6-13.6-3.4-19.5-1.8zm13.5 10.2c5.2 5.2 4.2 14.6-2.2 20.9C72.6 270.1 65 275 63 275c-1.9 0-5.2-8.9-5.3-14.4-.2-9.7 6.2-17.6 14.5-17.6 2.8 0 4.6.7 6.3 2.4zm-14 54.6c3.8 5.8 8.3 12.2 9.9 14.2 2.8 3.6 2.8 3.9 1.2 5.6-3.8 4.3-10.6 6.7-18.7 6.7-8.9 0-11.8-1.5-15.7-8.1-1.9-3.2-2.2-4.9-1.9-9.5.6-7 3.8-12.4 10.8-17.9 5.9-4.7 4.8-5.4 14.4 9zM215.3 235.5c-26.9 5.9-46.3 30.9-46.2 59.5 0 19.1 8.5 33.1 23.9 39.2 7.5 3 26.2 3.2 36.3.4l6.8-1.9-.5-3.6c-.3-2-.5-4.4-.6-5.5 0-1.3-.5-1.6-1.7-1.1-8.8 3.7-23.1 4.6-32.1 2-4.4-1.3-6.8-2.8-10.3-6.5-6.2-6.3-8.3-12.7-8.3-24.5.1-23.4 12.8-41.6 32.8-47 7.5-2 20.4-1.7 27.3.7l4.1 1.5 1.7-4.3c.9-2.4 1.5-5 1.3-5.6-.7-1.9-12.4-4.5-20.8-4.6-4.1-.1-10.3.5-13.7 1.3zM290.6 263.6c-11.9 3.8-21.4 13.4-26.6 26.9-3.4 8.7-3.5 24-.2 30.6 9.6 19.6 36.2 21.3 53.1 3.4 8.6-9.1 13-21 12.6-34.2-.4-12-6-21.4-15.5-25.6-5.9-2.7-16.9-3.2-23.4-1.1zm17.4 10.2c4.4 2.3 8.9 10.8 9 16.9.1 14.4-8.1 29.9-18.4 34.8-4.6 2.2-13.1 1.7-16.9-1.1-13.5-10-7.5-41.9 9.6-50.3 5.2-2.6 12.1-2.7 16.7-.3zM349.9 319.5c-5.5 3-6.1 12.3-1.1 16.1 4.7 3.6 12.6 0 13.8-6.2 1.6-8.5-5.4-13.9-12.7-9.9z"/></svg>